<?xml version="1.0" encoding="UTF-8"?>
<!DOCTYPE svg PUBLIC "-//W3C//DTD SVG 1.1//EN" "http://www.w3.org/Graphics/SVG/1.1/DTD/svg11.dtd">
<svg xmlns="http://www.w3.org/2000/svg" version="1.1" width="512px" height="512px" style="shape-rendering:geometricPrecision; text-rendering:geometricPrecision; image-rendering:optimizeQuality; fill-rule:evenodd; clip-rule:evenodd" xmlns:xlink="http://www.w3.org/1999/xlink">
<g><path style="opacity:0.949" fill="#ffffff" d="M 296.5,-0.5 C 309.5,-0.5 322.5,-0.5 335.5,-0.5C 406.279,9.29147 458.446,45.6248 492,108.5C 502.098,129.91 508.598,152.243 511.5,175.5C 511.5,188.5 511.5,201.5 511.5,214.5C 500.704,291.125 460.038,345.291 389.5,377C 354.827,390.149 319.16,394.149 282.5,389C 256.5,415 230.5,441 204.5,467C 198.866,471.719 193.366,471.552 188,466.5C 184.667,462.167 184.667,457.833 188,453.5C 211.5,430 235,406.5 258.5,383C 203.348,364.179 162.848,328.679 137,276.5C 104.167,309.333 71.3333,342.167 38.5,375C 31.5634,378.724 26.0634,377.224 22,370.5C 21.1834,367.036 21.5167,363.702 23,360.5C 58,325.5 93,290.5 128,255.5C 125.297,242.308 122.963,228.975 121,215.5C 115.932,130.791 149.432,66.6245 221.5,23C 245.196,10.599 270.196,2.76562 296.5,-0.5 Z M 298.5,20.5 C 310.171,20.3335 321.838,20.5001 333.5,21C 340.666,21.5827 347.666,22.9161 354.5,25C 341.5,34.1667 328.5,43.3333 315.5,52.5C 300.667,43.9181 286.001,35.0848 271.5,26C 280.551,23.7187 289.551,21.8854 298.5,20.5 Z M 379.5,32.5 C 402.48,40.9852 422.48,53.9852 439.5,71.5C 439.833,73.1667 440.167,74.8333 440.5,76.5C 437.668,100.489 435.001,124.489 432.5,148.5C 414.126,152.242 395.793,156.242 377.5,160.5C 360.443,148.881 343.609,136.881 327,124.5C 326.167,106.491 326.334,88.4907 327.5,70.5C 345.156,58.1634 362.489,45.4967 379.5,32.5 Z M 243.5,35.5 C 244.873,35.3433 246.207,35.51 247.5,36C 266.583,47.9587 285.75,59.792 305,71.5C 305.667,89.1667 305.667,106.833 305,124.5C 288.391,136.881 271.557,148.881 254.5,160.5C 236.207,156.242 217.874,152.242 199.5,148.5C 195.716,124.461 191.716,100.461 187.5,76.5C 203.749,59.3906 222.416,45.7239 243.5,35.5 Z M 459.5,96.5 C 479.98,124.719 490.146,156.386 490,191.5C 477.682,178.348 465.182,165.348 452.5,152.5C 455.125,133.881 457.458,115.214 459.5,96.5 Z M 169.5,98.5 C 173.3,116.594 176.134,134.927 178,153.5C 166.363,166.138 154.363,178.471 142,190.5C 141.844,165.618 147.177,141.951 158,119.5C 161.858,112.446 165.691,105.446 169.5,98.5 Z M 314.5,143.5 C 330.588,153.727 346.254,164.727 361.5,176.5C 355.224,193.995 349.557,211.661 344.5,229.5C 325.099,230.147 305.932,229.48 287,227.5C 281.299,210.729 275.799,193.896 270.5,177C 285.008,165.663 299.675,154.496 314.5,143.5 Z M 193.5,168.5 C 212.246,172.52 230.912,176.853 249.5,181.5C 255.679,200.548 262.012,219.548 268.5,238.5C 256.958,256.419 245.291,274.252 233.5,292C 209.658,288.599 185.991,284.099 162.5,278.5C 152.137,260.022 145.637,240.356 143,219.5C 160.035,202.632 176.868,185.632 193.5,168.5 Z M 435.5,168.5 C 436.552,168.351 437.552,168.517 438.5,169C 455.362,185.528 471.862,202.362 488,219.5C 486.42,241.483 479.587,261.65 467.5,280C 444.556,284.657 421.556,288.657 398.5,292C 386.709,274.252 375.042,256.419 363.5,238.5C 369.632,219.437 375.965,200.437 382.5,181.5C 400.304,177.277 417.971,172.944 435.5,168.5 Z M 285.5,250.5 C 305.844,250.167 326.178,250.5 346.5,251.5C 358.042,269.419 369.709,287.252 381.5,305C 369.5,325.667 357.5,346.333 345.5,367C 325.823,371.663 306.157,371.663 286.5,367C 274.5,346.333 262.5,325.667 250.5,305C 262.551,287.06 274.218,268.893 285.5,250.5 Z M 180.5,304.5 C 197.603,307.321 214.603,310.654 231.5,314.5C 239.967,329.463 248.634,344.296 257.5,359C 226.266,348.715 200.6,330.548 180.5,304.5 Z M 448.5,304.5 C 449.552,304.351 450.552,304.517 451.5,305C 430.999,330.522 405.332,348.522 374.5,359C 383.041,344.085 391.707,329.251 400.5,314.5C 416.649,311.271 432.649,307.938 448.5,304.5 Z"/></g>
<g><path style="opacity:0.911" fill="#ffffff" d="M 14.5,511.5 C 11.1667,511.5 7.83333,511.5 4.5,511.5C 2.83333,509.833 1.16667,508.167 -0.5,506.5C -0.5,503.167 -0.5,499.833 -0.5,496.5C 44.6048,450.895 89.9382,405.395 135.5,360C 140.09,356.301 145.09,355.635 150.5,358C 155.659,363.624 155.825,369.458 151,375.5C 105.605,421.062 60.1051,466.395 14.5,511.5 Z"/></g>
<g><path style="opacity:0.898" fill="#ffffff" d="M 161.5,480.5 C 172.956,479.461 177.456,484.461 175,495.5C 168.469,503.142 162.136,502.809 156,494.5C 154.268,488.314 156.101,483.647 161.5,480.5 Z"/></g>
</svg>
