<?xml version="1.0" encoding="UTF-8"?>
<!DOCTYPE svg PUBLIC "-//W3C//DTD SVG 1.1//EN" "http://www.w3.org/Graphics/SVG/1.1/DTD/svg11.dtd">
<svg xmlns="http://www.w3.org/2000/svg" version="1.1" width="512px" height="512px" style="shape-rendering:geometricPrecision; text-rendering:geometricPrecision; image-rendering:optimizeQuality; fill-rule:evenodd; clip-rule:evenodd" xmlns:xlink="http://www.w3.org/1999/xlink">
<g><path style="opacity:0.925" fill="#ffffff" d="M -0.5,329.5 C -0.5,325.833 -0.5,322.167 -0.5,318.5C 3.84166,310.654 10.3417,305.654 19,303.5C 21.4528,304.493 23.9528,304.66 26.5,304C 33.6667,296.833 40.8333,289.667 48,282.5C 47.0033,277.787 47.3366,273.12 49,268.5C 53.1737,261.135 59.3403,256.802 67.5,255.5C 70.2586,255.542 72.9253,256.042 75.5,257C 80.6492,261.315 85.6492,265.815 90.5,270.5C 107.486,254.014 124.319,237.347 141,220.5C 135.471,200.891 142.304,187.224 161.5,179.5C 162.61,163.053 170.943,152.053 186.5,146.5C 187.873,130.959 195.873,120.459 210.5,115C 213.5,114.667 216.5,114.333 219.5,114C 207.383,98.1838 208.05,82.8505 221.5,68C 229.138,62.0032 237.805,59.6699 247.5,61C 261.098,64.9397 274.598,69.1064 288,73.5C 298.047,65.6019 308.88,64.4353 320.5,70C 327.318,75.1342 332.152,81.6342 335,89.5C 335.498,92.8168 335.665,96.1501 335.5,99.5C 339.105,99.7986 342.439,100.965 345.5,103C 351.56,107.714 356.06,113.548 359,120.5C 359.499,124.821 359.666,129.154 359.5,133.5C 369.27,136.764 376.437,143.097 381,152.5C 383.522,160.576 382.689,168.243 378.5,175.5C 385.58,181.079 391.413,187.746 396,195.5C 398.298,204.51 396.798,212.843 391.5,220.5C 403.819,233.319 416.319,245.986 429,258.5C 431.833,269 428,272.833 417.5,270C 404.986,257.319 392.319,244.819 379.5,232.5C 372.014,239.485 364.681,246.652 357.5,254C 346.964,256.797 343.13,252.964 346,242.5C 357,231.5 368,220.5 379,209.5C 381.721,206.362 382.054,203.029 380,199.5C 377.131,196.296 373.965,193.463 370.5,191C 368.5,190.333 366.5,190.333 364.5,191C 359.381,196.509 354.215,196.675 349,191.5C 348.183,188.036 348.517,184.702 350,181.5C 355,176.5 360,171.5 365,166.5C 366.422,163.97 366.755,161.303 366,158.5C 363.5,154.667 360.333,151.5 356.5,149C 354.5,148.333 352.5,148.333 350.5,149C 347.779,151.027 344.779,152.527 341.5,153.5C 335.583,152.093 333.083,148.427 334,142.5C 337,138.833 340,135.167 343,131.5C 343.667,129.167 343.667,126.833 343,124.5C 340.5,120.667 337.333,117.5 333.5,115C 331.5,114.333 329.5,114.333 327.5,115C 325.13,117.37 322.296,118.87 319,119.5C 311.677,117.853 309.343,113.52 312,106.5C 315.95,103.735 318.45,100.068 319.5,95.5C 317.936,90.4154 314.936,86.2487 310.5,83C 307.833,82.3333 305.167,82.3333 302.5,83C 294.167,91.3333 285.833,99.6667 277.5,108C 284.032,114.198 290.199,120.698 296,127.5C 304.044,146.377 298.877,160.21 280.5,169C 277.522,169.696 274.522,170.196 271.5,170.5C 269.842,187.492 260.508,196.825 243.5,198.5C 241.675,215.992 232.008,225.325 214.5,226.5C 212.379,247.582 200.712,256.749 179.5,254C 176.382,252.941 173.382,251.608 170.5,250C 164.667,244.167 158.833,238.333 153,232.5C 136.167,249.333 119.333,266.167 102.5,283C 107.415,287.244 111.581,292.077 115,297.5C 115.488,305.669 111.654,308.836 103.5,307C 91.5291,296.03 79.8624,284.696 68.5,273C 66.2484,273.05 64.5818,274.216 63.5,276.5C 64.2618,280.111 64.7618,283.778 65,287.5C 77.363,299.529 89.363,311.862 101,324.5C 101.747,334.048 97.5799,337.215 88.5,334C 77,322.5 65.5,311 54,299.5C 47.0987,307.072 39.5987,313.905 31.5,320C 27.1667,320.333 22.8333,320.667 18.5,321C 15.3801,323.063 15.0467,325.73 17.5,329C 16.2391,335.915 12.2391,338.249 5.5,336C 2.68648,334.506 0.686482,332.34 -0.5,329.5 Z M 239.5,76.5 C 251.5,78.6105 263.167,81.9439 274.5,86.5C 271.833,89.8333 268.833,92.8333 265.5,95.5C 258.115,89.8272 249.781,87.9939 240.5,90C 235.995,91.7492 231.995,94.2492 228.5,97.5C 225.551,87.0991 229.217,80.0991 239.5,76.5 Z M 247.5,104.5 C 249.512,105.228 251.512,106.062 253.5,107C 263.697,116.863 273.53,127.029 283,137.5C 284.961,147.045 281.127,152.712 271.5,154.5C 269.803,154.101 268.137,153.601 266.5,153C 256.363,143.864 246.53,134.364 237,124.5C 233.667,120.5 233.667,116.5 237,112.5C 239.855,108.789 243.355,106.123 247.5,104.5 Z M 213.5,130.5 C 216.32,130.248 218.986,130.748 221.5,132C 232.333,142.833 243.167,153.667 254,164.5C 256.958,174.25 253.458,180.25 243.5,182.5C 240.972,182.237 238.639,181.404 236.5,180C 226,169.5 215.5,159 205,148.5C 203.578,145.97 203.245,143.303 204,140.5C 206.696,136.639 209.863,133.306 213.5,130.5 Z M 188.5,162.5 C 191.649,162.211 194.649,162.711 197.5,164C 206.333,172.833 215.167,181.667 224,190.5C 228.92,197.351 228.087,203.517 221.5,209C 216.643,211.21 211.976,210.877 207.5,208C 198.667,199.167 189.833,190.333 181,181.5C 178.214,178.033 177.88,174.366 180,170.5C 182.729,167.601 185.562,164.934 188.5,162.5 Z M 166.5,194.5 C 168.564,194.687 170.564,195.187 172.5,196C 180.667,204.167 188.833,212.333 197,220.5C 200.913,230.683 197.579,236.683 187,238.5C 184.7,238.506 182.534,238.006 180.5,237C 172.333,228.833 164.167,220.667 156,212.5C 153.946,208.971 154.279,205.638 157,202.5C 159.772,199.217 162.939,196.55 166.5,194.5 Z"/></g>
<g><path style="opacity:0.919" fill="#ffffff" d="M 327.5,262.5 C 335.985,263.797 338.485,268.464 335,276.5C 322.259,285.955 308.426,293.455 293.5,299C 298.772,301.941 303.772,305.274 308.5,309C 347.333,347.833 386.167,386.667 425,425.5C 427.833,436 424,439.833 413.5,437C 374.833,398.333 336.167,359.667 297.5,321C 286.902,312.536 274.902,307.036 261.5,304.5C 252.039,308.395 243.372,313.561 235.5,320C 219.5,336 203.5,352 187.5,368C 193.632,373.694 195.465,380.527 193,388.5C 189.833,393 186,396.833 181.5,400C 176.25,401.174 170.916,401.841 165.5,402C 158.5,409 151.5,416 144.5,423C 145.85,427.84 145.684,432.673 144,437.5C 139.904,444.613 133.904,448.946 126,450.5C 121.414,450.195 117.414,448.528 114,445.5C 111.413,440.587 112.247,436.42 116.5,433C 119.562,432.259 122.562,432.425 125.5,433.5C 129.577,430.977 130.577,427.477 128.5,423C 128.975,419.263 130.142,415.763 132,412.5C 140.898,402.932 150.398,394.099 160.5,386C 165.167,385.667 169.833,385.333 174.5,385C 175.5,384 176.5,383 177.5,382C 160,364.5 142.5,347 125,329.5C 121.63,325.163 121.797,320.996 125.5,317C 129.742,314.798 133.742,315.131 137.5,318C 150.333,330.833 163.167,343.667 176,356.5C 192.5,340 209,323.5 225.5,307C 234.935,298.946 245.602,292.946 257.5,289C 269.801,286.422 282.135,284.088 294.5,282C 305.925,275.964 316.925,269.464 327.5,262.5 Z"/></g>
<g><path style="opacity:0.915" fill="#ffffff" d="M 511.5,341.5 C 511.5,344.167 511.5,346.833 511.5,349.5C 508.067,353.146 504.067,353.98 499.5,352C 479.333,331.833 459.167,311.667 439,291.5C 436.932,280.911 441.098,277.411 451.5,281C 471.729,301.062 491.729,321.228 511.5,341.5 Z"/></g>
<g><path style="opacity:0.928" fill="#ffffff" d="M 111.5,366.5 C 130.974,364.477 140.141,373.144 139,392.5C 132.203,408.101 121.036,412.268 105.5,405C 93.5114,393.292 93.5114,381.625 105.5,370C 107.432,368.541 109.432,367.375 111.5,366.5 Z M 115.5,382.5 C 120.083,381.343 122.75,383.01 123.5,387.5C 121.624,392.706 118.457,393.706 114,390.5C 112.296,387.527 112.796,384.86 115.5,382.5 Z"/></g>
</svg>
