<?xml version="1.0" encoding="UTF-8"?>
<!DOCTYPE svg PUBLIC "-//W3C//DTD SVG 1.1//EN" "http://www.w3.org/Graphics/SVG/1.1/DTD/svg11.dtd">
<svg xmlns="http://www.w3.org/2000/svg" version="1.1" width="512px" height="512px" style="shape-rendering:geometricPrecision; text-rendering:geometricPrecision; image-rendering:optimizeQuality; fill-rule:evenodd; clip-rule:evenodd" xmlns:xlink="http://www.w3.org/1999/xlink">
<g><path style="opacity:0.96" fill="#ffffff" d="M 203.5,-0.5 C 246.5,-0.5 289.5,-0.5 332.5,-0.5C 343.112,8.0029 343.112,16.5029 332.5,25C 315.503,25.4999 298.503,25.6666 281.5,25.5C 281.175,41.4111 281.509,57.2444 282.5,73C 332.413,76.6786 376.08,94.8453 413.5,127.5C 422.652,118.848 431.652,110.014 440.5,101C 435.667,96.1667 430.833,91.3333 426,86.5C 420.154,72.0241 424.987,64.8574 440.5,65C 442.725,65.5611 444.725,66.5611 446.5,68C 461.667,83.1667 476.833,98.3333 492,113.5C 498.105,120.671 497.938,127.671 491.5,134.5C 485.968,138.196 480.301,138.363 474.5,135C 469.652,129.985 464.652,125.152 459.5,120.5C 450.348,129.152 441.348,137.986 432.5,147C 473.258,194.299 491.258,249.299 486.5,312C 475.393,401.413 428.393,463.413 345.5,498C 326.891,504.75 307.891,509.25 288.5,511.5C 274.5,511.5 260.5,511.5 246.5,511.5C 193.731,505.531 148.565,483.864 111,446.5C 106.166,434.834 109.833,427.501 122,424.5C 123.734,425.249 125.567,425.749 127.5,426C 137.65,434.573 147.984,442.907 158.5,451C 215.879,488.056 276.545,494.722 340.5,471C 397.333,446.5 434.833,404.667 453,345.5C 472.411,264.411 450.911,196.578 388.5,142C 334.206,100.857 274.206,89.8565 208.5,109C 178.472,119.507 152.139,135.84 129.5,158C 118.056,161.949 111.056,158.116 108.5,146.5C 109.145,143.772 109.979,141.105 111,138.5C 150.522,98.8279 198.356,77.1612 254.5,73.5C 254.5,57.5 254.5,41.5 254.5,25.5C 237.497,25.6666 220.497,25.4999 203.5,25C 195.257,19.9069 193.424,13.0735 198,4.5C 199.812,2.69974 201.645,1.03308 203.5,-0.5 Z"/></g>
<g><path style="opacity:0.938" fill="#ffffff" d="M 264.5,128.5 C 272.415,127.873 277.915,131.206 281,138.5C 281.667,149.167 281.667,159.833 281,170.5C 276.008,180.939 268.508,183.106 258.5,177C 257.333,175.167 256.167,173.333 255,171.5C 254.333,160.5 254.333,149.5 255,138.5C 256.35,133.319 259.517,129.986 264.5,128.5 Z"/></g>
<g><path style="opacity:0.952" fill="#ffffff" d="M 364.5,179.5 C 378.914,180.652 383.414,187.986 378,201.5C 355,224.5 332,247.5 309,270.5C 318.274,293.803 313.441,313.636 294.5,330C 269.824,343.522 248.324,339.688 230,318.5C 219.471,299.71 220.137,281.376 232,263.5C 248.45,246.677 267.617,242.51 289.5,251C 311.833,228.667 334.167,206.333 356.5,184C 359.099,182.205 361.766,180.705 364.5,179.5 Z M 264.5,273.5 C 277.218,273.392 284.551,279.558 286.5,292C 285.457,303.376 279.29,309.876 268,311.5C 251.904,307.743 246.57,298.076 252,282.5C 255.299,278.118 259.466,275.118 264.5,273.5 Z"/></g>
<g><path style="opacity:0.957" fill="#ffffff" d="M 24.5,195.5 C 66.8346,195.333 109.168,195.5 151.5,196C 159.735,199.597 162.569,205.763 160,214.5C 158.108,218.058 155.275,220.558 151.5,222C 109.167,222.667 66.8333,222.667 24.5,222C 15.2538,217.592 12.7538,210.759 17,201.5C 19.1141,198.879 21.6141,196.879 24.5,195.5 Z"/></g>
<g><path style="opacity:0.956" fill="#ffffff" d="M 56.5,278.5 C 97.5014,278.333 138.501,278.5 179.5,279C 186.83,280.499 190.83,284.999 191.5,292.5C 190.819,298.37 187.819,302.537 182.5,305C 139.5,305.667 96.5,305.667 53.5,305C 46.2412,301.307 43.7412,295.474 46,287.5C 48.1029,282.722 51.6029,279.722 56.5,278.5 Z"/></g>
<g><path style="opacity:0.94" fill="#ffffff" d="M 391.5,278.5 C 401.172,278.334 410.839,278.5 420.5,279C 431.16,282.971 433.994,290.137 429,300.5C 427.442,302.359 425.609,303.859 423.5,305C 411.833,305.667 400.167,305.667 388.5,305C 381.801,301.964 378.967,296.798 380,289.5C 381.789,283.541 385.622,279.875 391.5,278.5 Z"/></g>
<g><path style="opacity:0.955" fill="#ffffff" d="M 23.5,362.5 C 66.5013,362.333 109.501,362.5 152.5,363C 160.042,366.984 162.542,373.151 160,381.5C 157.64,385.597 154.14,388.097 149.5,389C 108.167,389.667 66.8333,389.667 25.5,389C 18.7242,387.056 15.0575,382.556 14.5,375.5C 15.3009,369.541 18.3009,365.208 23.5,362.5 Z"/></g>
<g><path style="opacity:0.941" fill="#ffffff" d="M 351.5,367.5 C 355.605,367.234 359.605,367.734 363.5,369C 371,376.5 378.5,384 386,391.5C 389.967,402.906 386.133,409.906 374.5,412.5C 371.728,411.974 369.062,411.141 366.5,410C 359.333,402.833 352.167,395.667 345,388.5C 340.849,379.415 343.016,372.415 351.5,367.5 Z"/></g>
<g><path style="opacity:0.942" fill="#ffffff" d="M 262.5,404.5 C 271.578,402.784 277.745,406.118 281,414.5C 281.667,425.167 281.667,435.833 281,446.5C 276.567,455.648 269.734,458.148 260.5,454C 257.894,452.062 256.061,449.562 255,446.5C 254.333,435.5 254.333,424.5 255,413.5C 256.642,409.7 259.142,406.7 262.5,404.5 Z"/></g>
</svg>
